<svg width="17" height="19" viewBox="0 0 17 19" fill="none" xmlns="http://www.w3.org/2000/svg">
<path d="M13.6401 18.03H2.6001C1.5001 18.03 0.600098 17.13 0.600098 16.03V9.87997C0.600098 8.77997 1.5001 7.87997 2.6001 7.87997H13.6401C14.7401 7.87997 15.6401 8.77997 15.6401 9.87997V16.03C15.6401 17.13 14.7401 18.03 13.6401 18.03Z" fill="#C4C4C4" stroke="#C4C4C4" stroke-width="1.2" stroke-miterlimit="10" stroke-linecap="round" stroke-linejoin="round"/>
<path d="M12.5901 7.87998V5.06998C12.5901 2.59998 10.5901 0.599976 8.1201 0.599976C5.6501 0.599976 3.6501 2.59998 3.6501 5.06998V7.87998" stroke="#C4C4C4" stroke-width="1.2" stroke-miterlimit="10" stroke-linecap="round" stroke-linejoin="round"/>
<path d="M8.1199 12.95C8.79369 12.95 9.3399 12.4038 9.3399 11.73C9.3399 11.0562 8.79369 10.51 8.1199 10.51C7.44611 10.51 6.8999 11.0562 6.8999 11.73C6.8999 12.4038 7.44611 12.95 8.1199 12.95Z" fill="#191927"/>
<path d="M8.12012 12.52V14.5" stroke="#191927" stroke-width="1.2" stroke-miterlimit="10" stroke-linecap="round" stroke-linejoin="round"/>
</svg>
